<svg width="236" height="38" viewBox="0 0 236 38" fill="none" xmlns="http://www.w3.org/2000/svg">
<path d="M0.763682 24.8834C0.763682 32.554 5.55168 37.6351 12.8803 37.6351C19.1828 37.6351 23.8731 33.7754 24.606 28.1569H18.5965C17.9614 30.7951 15.8605 32.2609 12.8803 32.2609C9.0694 32.2609 6.72425 29.4271 6.72425 24.8834C6.72425 20.3397 9.26483 17.4571 13.0757 17.4571C15.9094 17.4571 17.9125 18.874 18.5965 21.61H24.5571C23.922 15.796 19.4271 12.1317 12.8314 12.1317C5.69825 12.1317 0.763682 17.4083 0.763682 24.8834ZM27.6256 24.8834C27.6256 32.4074 33.0487 37.5863 40.5239 37.5863C47.999 37.5863 53.4221 32.4074 53.4221 24.8834C53.4221 17.3594 47.999 12.1806 40.5239 12.1806C33.0487 12.1806 27.6256 17.3594 27.6256 24.8834ZM33.5861 24.8834C33.5861 20.4863 36.4199 17.506 40.5239 17.506C44.6279 17.506 47.4616 20.4863 47.4616 24.8834C47.4616 29.2806 44.6279 32.2609 40.5239 32.2609C36.4199 32.2609 33.5861 29.2806 33.5861 24.8834ZM64.1562 37V0.650284H58.2445V37H64.1562ZM68.9919 24.8834C68.9919 32.4074 74.4151 37.5863 81.8902 37.5863C89.3654 37.5863 94.7885 32.4074 94.7885 24.8834C94.7885 17.3594 89.3654 12.1806 81.8902 12.1806C74.4151 12.1806 68.9919 17.3594 68.9919 24.8834ZM74.9525 24.8834C74.9525 20.4863 77.7862 17.506 81.8902 17.506C85.9942 17.506 88.8279 20.4863 88.8279 24.8834C88.8279 29.2806 85.9942 32.2609 81.8902 32.2609C77.7862 32.2609 74.9525 29.2806 74.9525 24.8834ZM115.489 37.5863C123.942 37.5863 130.489 32.6029 131.857 25.0789H125.359C124.186 29.0363 120.473 31.5769 115.636 31.5769C109.089 31.5769 104.887 26.6911 104.887 19.1183C104.887 11.4966 109.04 6.70857 115.636 6.70857C120.375 6.70857 123.942 9.15143 125.163 13.3043H131.759C130.537 5.63371 124.235 0.699141 115.783 0.699141C105.327 0.699141 98.3406 8.07657 98.3406 19.1671C98.3406 30.3554 105.083 37.5863 115.489 37.5863ZM135.169 24.8834C135.169 32.4074 140.592 37.5863 148.067 37.5863C155.542 37.5863 160.965 32.4074 160.965 24.8834C160.965 17.3594 155.542 12.1806 148.067 12.1806C140.592 12.1806 135.169 17.3594 135.169 24.8834ZM141.129 24.8834C141.129 20.4863 143.963 17.506 148.067 17.506C152.171 17.506 155.005 20.4863 155.005 24.8834C155.005 29.2806 152.171 32.2609 148.067 32.2609C143.963 32.2609 141.129 29.2806 141.129 24.8834ZM181.484 12.8646V25.5186C181.484 30.1111 179.677 32.3097 175.915 32.3097C172.592 32.3097 170.785 30.4531 170.785 25.8606V12.8646H164.824V27.9614C164.824 33.8731 168.097 37.6351 173.667 37.6351C176.892 37.6351 180.019 36.0717 181.484 33.7754L181.924 37H187.445V12.8646H181.484ZM199.562 37V24.004C199.562 20.0954 201.809 17.5549 205.474 17.5549C208.552 17.5549 210.555 19.5091 210.555 23.5643V37H216.515V22.1474C216.515 15.8937 213.388 12.1317 207.33 12.1317C204.057 12.1317 201.125 13.5486 199.611 15.9914L199.122 12.8646H193.601V37H199.562ZM230.58 37V17.848H235.27V12.8646H230.58V5.34057H224.619V12.8646H219.978V17.848H224.619V37H230.58Z" fill="url(#paint0_linear_25_1765)"/>
<defs>
<linearGradient id="paint0_linear_25_1765" x1="194.498" y1="-55.2381" x2="39.1622" y2="76.3146" gradientUnits="userSpaceOnUse">
<stop stop-color="#FF51EB"/>
<stop offset="1" stop-color="#EDE342"/>
</linearGradient>
</defs>
</svg>
