<svg width="13" height="14" viewBox="0 0 13 14" fill="none" xmlns="http://www.w3.org/2000/svg">
<path fill-rule="evenodd" clip-rule="evenodd" d="M0.530339 1.46966C0.823232 1.17677 1.29811 1.17677 1.591 1.46966L11.5303 11.409C11.8232 11.7019 11.8232 12.1768 11.5303 12.4697C11.2374 12.7626 10.7626 12.7626 10.4697 12.4697L0.530339 2.53032C0.237446 2.23743 0.237446 1.76255 0.530339 1.46966Z" fill="#BF0000"/>
<path fill-rule="evenodd" clip-rule="evenodd" d="M11.5303 1.53034C11.8232 1.82323 11.8232 2.29811 11.5303 2.591L1.591 12.5303C1.29811 12.8232 0.823233 12.8232 0.530339 12.5303C0.237446 12.2374 0.237446 11.7626 0.530339 11.4697L10.4697 1.53034C10.7626 1.23745 11.2374 1.23745 11.5303 1.53034Z" fill="#BF0000"/>
</svg>
