<svg width="36" height="36" viewBox="0 0 36 36" fill="none" xmlns="http://www.w3.org/2000/svg">
<rect x="1.32668" y="0.649191" width="34.1315" height="34.1315" rx="17.0657" fill="white"/>
<path fill-rule="evenodd" clip-rule="evenodd" d="M12.2617 11.5557C12.7694 11.048 13.5925 11.048 14.1001 11.5557L24.5079 21.9635C25.0156 22.4712 25.0156 23.2943 24.5079 23.802V23.802C24.0002 24.3096 23.1771 24.3096 22.6694 23.802L12.2617 13.3942C11.754 12.8865 11.754 12.0634 12.2617 11.5557V11.5557Z" fill="#2D2D2D"/>
<path fill-rule="evenodd" clip-rule="evenodd" d="M24.5081 11.5559C25.0158 12.0635 25.0158 12.8867 24.5081 13.3943L14.1004 23.8021C13.5927 24.3098 12.7696 24.3098 12.2619 23.8021V23.8021C11.7542 23.2944 11.7542 22.4713 12.2619 21.9636L22.6697 11.5559C23.1773 11.0482 24.0004 11.0482 24.5081 11.5559V11.5559Z" fill="#2D2D2D"/>
<rect x="1.32668" y="0.649191" width="34.1315" height="34.1315" rx="17.0657" stroke="url(#paint0_linear_134_708)" stroke-width="1.08354"/>
<defs>
<linearGradient id="paint0_linear_134_708" x1="29.8332" y1="-27.841" x2="-8.22289" y2="-20.0896" gradientUnits="userSpaceOnUse">
<stop stop-color="#FF51EB"/>
<stop offset="1" stop-color="#EDE342"/>
</linearGradient>
</defs>
</svg>
