<svg width="65" height="65" viewBox="0 0 65 65" fill="none" xmlns="http://www.w3.org/2000/svg">
<rect x="1" y="1" width="63" height="63" rx="31.5" fill="white"/>
<g clip-path="url(#clip0_233_842)">
<path d="M48 37.9949C48 38.232 47.7629 38.4691 47.5258 38.4691H41.7568C40.2552 36.0192 37.7263 34.2016 34.7233 33.7274C36.0667 33.1742 37.2522 32.2259 37.9634 30.9614C38.5166 30.8033 39.0698 30.7243 39.702 30.7243H40.8874C44.8389 30.8033 48 34.0435 48 37.9949ZM38.6747 29.4599C39.1488 29.697 39.702 29.776 40.3342 29.776C42.7051 29.776 44.6808 27.8003 44.6808 25.4294C44.6808 23.0586 42.7051 21.0829 40.3342 21.0829C38.9117 21.0829 37.5683 21.7941 36.778 22.9005C38.1215 24.086 38.9117 25.8246 38.9117 27.7212C38.9117 28.3535 38.8327 28.9067 38.6747 29.4599ZM30.0606 33.7274C28.6381 33.1742 27.5317 32.1468 26.7414 30.8824C26.2672 30.8033 25.8721 30.7243 25.3979 30.7243H24.2915C20.3401 30.7243 17.1 33.9645 17.1 37.9159C17.1 38.232 17.3371 38.4691 17.5741 38.4691H23.0271C24.6076 36.0192 27.1365 34.2016 30.0606 33.7274ZM24.8447 29.776C25.3189 29.776 25.7931 29.697 26.1882 29.5389C26.0302 28.9857 25.9511 28.3535 25.9511 27.7212C25.9511 25.7455 26.8204 23.9279 28.2429 22.7425C27.4527 21.7151 26.2672 21.0829 24.8447 21.0829C22.4739 21.0829 20.4982 23.0586 20.4982 25.4294C20.4982 27.8003 22.4739 29.776 24.8447 29.776ZM33.3798 34.5967C33.3007 34.5967 33.2217 34.5967 33.1427 34.5967H31.7202H31.6412C28.5591 34.5177 25.7931 36.0982 24.2125 38.4691C23.1851 39.9706 22.5529 41.7883 22.5529 43.6849C22.5529 44.001 22.869 44.3172 23.1851 44.3172H41.6777C41.9938 44.3172 42.31 44.001 42.31 43.6849C42.31 41.7092 41.6777 39.8916 40.6504 38.4691C39.0698 36.1773 36.3828 34.5967 33.3798 34.5967ZM27.0575 29.1438C27.2946 30.0131 27.6897 30.7243 28.2429 31.3565C28.8752 31.9888 29.5864 32.542 30.4557 32.8581C31.088 33.0952 31.7202 33.1742 32.3524 33.1742C33.2217 33.1742 34.012 32.9371 34.8023 32.621C35.3555 32.3839 35.8296 31.9888 36.2248 31.5936C36.936 30.8824 37.4892 29.934 37.7263 28.9067C37.8053 28.5115 37.8844 28.0374 37.8844 27.6422C37.8844 26.0617 37.2522 24.6392 36.2248 23.6908C35.1974 22.7425 33.8539 22.1103 32.3524 22.1103C30.9299 22.1103 29.6654 22.6634 28.7171 23.4537C27.5317 24.4811 26.8204 25.9826 26.8204 27.6422C26.8995 28.1954 26.9785 28.7486 27.0575 29.1438Z" fill="#2D2D2D"/>
</g>
<rect x="1" y="1" width="63" height="63" rx="31.5" stroke="url(#paint0_linear_233_842)" stroke-width="2"/>
<defs>
<linearGradient id="paint0_linear_233_842" x1="53.6175" y1="-51.5873" x2="-16.6266" y2="-37.2797" gradientUnits="userSpaceOnUse">
<stop stop-color="#FF51EB"/>
<stop offset="1" stop-color="#EDE342"/>
</linearGradient>
<clipPath id="clip0_233_842">
<rect width="30.9" height="23.2343" fill="white" transform="translate(17.1 21.0829)"/>
</clipPath>
</defs>
</svg>
