<svg width="13" height="14" viewBox="0 0 13 14" fill="none" xmlns="http://www.w3.org/2000/svg">
<path fill-rule="evenodd" clip-rule="evenodd" d="M0.25 7.07178C0.25 6.65756 0.585786 6.32178 1 6.32178H12C12.4142 6.32178 12.75 6.65756 12.75 7.07178C12.75 7.48599 12.4142 7.82178 12 7.82178H1C0.585786 7.82178 0.25 7.48599 0.25 7.07178Z" fill="#2D2D2D"/>
<path fill-rule="evenodd" clip-rule="evenodd" d="M6.5 0.821777C6.91421 0.821777 7.25 1.15756 7.25 1.57178L7.25 12.5718C7.25 12.986 6.91421 13.3218 6.5 13.3218C6.08579 13.3218 5.75 12.986 5.75 12.5718L5.75 1.57178C5.75 1.15756 6.08579 0.821777 6.5 0.821777Z" fill="#2D2D2D"/>
</svg>
