<svg width="4" height="19" viewBox="0 0 4 19" fill="none" xmlns="http://www.w3.org/2000/svg">
<path d="M2.1999 0.699951C3.1999 0.699951 3.9999 1.49995 3.9999 2.49995C3.9999 3.49995 3.1999 4.29995 2.1999 4.29995C1.1999 4.29995 0.399902 3.49995 0.399902 2.49995C0.399902 1.49995 1.1999 0.699951 2.1999 0.699951ZM2.1999 7.69995C3.1999 7.69995 3.9999 8.49995 3.9999 9.49995C3.9999 10.5 3.1999 11.3 2.1999 11.3C1.1999 11.3 0.399902 10.5 0.399902 9.49995C0.399902 8.49995 1.1999 7.69995 2.1999 7.69995ZM2.1999 14.7C3.1999 14.7 3.9999 15.5 3.9999 16.5C3.9999 17.5 3.1999 18.3 2.1999 18.3C1.1999 18.3 0.399902 17.5 0.399902 16.5C0.399902 15.5 1.1999 14.7 2.1999 14.7Z" fill="url(#paint0_linear_186_712)"/>
<defs>
<linearGradient id="paint0_linear_186_712" x1="5.834" y1="10.2484" x2="-1.0979" y2="8.83645" gradientUnits="userSpaceOnUse">
<stop stop-color="#FF51EB"/>
<stop offset="1" stop-color="#EDE342"/>
</linearGradient>
</defs>
</svg>
