<svg width="23" height="23" viewBox="0 0 23 23" fill="none" xmlns="http://www.w3.org/2000/svg">
<rect x="0.595578" y="0.541806" width="21.733" height="21.733" rx="10.8665" fill="white"/>
<path d="M13.6926 7.42741C13.7265 7.39354 13.7814 7.39354 13.8153 7.42741L15.7365 9.34867C15.7704 9.38253 15.7704 9.43744 15.7365 9.4713L10.075 15.1329L8.03105 13.089L13.6926 7.42741Z" fill="#2D2D2D"/>
<path d="M14.776 6.3439C15.0018 6.11814 15.3678 6.11814 15.5936 6.3439L16.8199 7.57024C17.0457 7.796 17.0457 8.16203 16.8199 8.3878L16.2681 8.93965C16.2342 8.97351 16.1793 8.97351 16.1454 8.93965L14.2242 7.01839C14.1903 6.98452 14.1903 6.92962 14.2242 6.89575L14.776 6.3439Z" fill="#2D2D2D"/>
<path d="M8.64431 14.5196L9.57626 15.4515C9.62309 15.4983 9.60226 15.5783 9.53854 15.5963L7.28781 16.2329C7.07026 16.2944 6.86947 16.0936 6.931 15.8761L7.56761 13.6253C7.58563 13.5616 7.66554 13.5408 7.71236 13.5876L8.64431 14.5196Z" fill="#2D2D2D"/>
<rect x="0.595578" y="0.541806" width="21.733" height="21.733" rx="10.8665" stroke="url(#paint0_linear_249_702)" stroke-width="0.860711"/>
<defs>
<linearGradient id="paint0_linear_249_702" x1="18.8024" y1="-17.82" x2="-5.61411" y2="-12.8468" gradientUnits="userSpaceOnUse">
<stop stop-color="#FF51EB"/>
<stop offset="1" stop-color="#EDE342"/>
</linearGradient>
</defs>
</svg>
